<svg width="18" height="22" viewBox="0 0 18 22" fill="none" xmlns="http://www.w3.org/2000/svg">
<path fill-rule="evenodd" clip-rule="evenodd" d="M7.58744 0.116888C6.41452 0.386238 5.37826 0.922476 4.4723 1.72889C4.19992 1.97135 3.91339 2.16969 3.83567 2.16969C3.59254 2.16969 3.05459 1.83635 2.67165 1.44851C2.46948 1.24369 2.30478 1.10678 2.30574 1.14434C2.3067 1.18189 2.43438 1.46728 2.58956 1.77865C3.34505 3.29458 5.18037 5.15788 7.06128 6.31859C7.42545 6.54337 7.7573 6.72722 7.79878 6.72722C7.84017 6.72722 8.04531 6.64609 8.25473 6.54692C8.75661 6.3092 9.41656 6.30966 9.86142 6.54801C10.0516 6.64992 10.2859 6.71281 10.382 6.68775C10.4781 6.66259 10.9265 6.39187 11.3785 6.08597C13.3509 4.75153 14.8314 3.16341 15.6199 1.53638L15.8605 1.03979L15.4172 1.45589C14.9481 1.89606 14.4833 2.16969 14.2047 2.16969C14.1123 2.16969 13.9414 2.06268 13.8249 1.93197C13.1712 1.19784 11.8544 0.461072 10.6637 0.163101C9.82038 -0.0479125 8.39821 -0.0692417 7.58744 0.116888ZM2.57856 4.7127C2.06218 5.97869 2.02812 6.23865 1.95721 9.46173C1.89817 12.1468 1.87066 12.5317 1.66343 13.5731C1.40354 14.8791 0.974573 16.26 0.569276 17.0956C0.417235 17.4089 0.318378 17.6653 0.349467 17.6653C0.380644 17.6653 0.880257 17.2653 1.45986 16.7766C2.03956 16.2877 2.5562 15.86 2.60816 15.826C2.6651 15.7889 3.03075 16.3224 3.5294 17.1702C3.98413 17.9433 4.38401 18.5658 4.4179 18.5535C4.45178 18.5412 4.85158 18.1724 5.30639 17.7336C5.76112 17.2949 6.15235 16.9361 6.17584 16.9361C6.19925 16.9361 6.71973 17.7872 7.33244 18.8274C7.94514 19.8677 8.58029 20.9397 8.74386 21.2097L9.04131 21.7005L9.4521 21.0274C9.67803 20.6571 10.3137 19.5853 10.8648 18.6454C11.4157 17.7056 11.889 16.9364 11.9163 16.9363C11.9437 16.9362 12.3429 17.3052 12.8035 17.7564C13.264 18.2076 13.6606 18.5768 13.6847 18.5768C13.7087 18.5768 13.976 18.1563 14.2786 17.6425C14.5811 17.1287 14.9599 16.4916 15.1204 16.2268L15.4123 15.7456L16.5395 16.7054C17.1596 17.2333 17.6858 17.6653 17.7091 17.6653C17.7324 17.6653 17.62 17.3642 17.4593 16.9962C17.0776 16.122 16.656 14.7382 16.4445 13.665C16.1995 12.4228 16.1037 11.0548 16.1023 8.7781C16.1011 7.10549 16.0725 6.64937 15.93 6.02919C15.7503 5.24657 15.2483 3.96836 15.138 4.01239C15.1023 4.02661 14.9018 4.2595 14.6925 4.52985C13.9358 5.50698 13.9902 5.36114 14.1839 5.8931C14.758 7.47028 13.8744 8.91638 12.1946 9.14836L11.7367 9.21162L11.7902 9.72406C11.8224 10.0328 11.9003 10.2839 11.9862 10.3558C12.0645 10.4215 12.551 10.7273 13.0674 11.0353C13.5838 11.3434 14.0052 11.6178 14.0041 11.6452C14.0029 11.6725 13.5473 11.9594 12.9917 12.2828C11.9228 12.9047 11.5816 13.233 11.1232 14.0809C10.6026 15.0438 9.98429 16.8064 9.377 19.0588C9.21771 19.6497 9.06113 20.1009 9.02908 20.0614C8.99703 20.0219 8.78036 19.3128 8.54763 18.4856C7.74856 15.6462 7.08992 14.0436 6.39653 13.2514C6.11105 12.9253 5.70592 12.6273 5.02388 12.2418C4.49169 11.941 4.0553 11.6744 4.05417 11.6493C4.05303 11.6243 4.52584 11.3226 5.10492 10.9789C6.22763 10.3126 6.32116 10.2025 6.32116 9.54696C6.32116 9.23896 6.29418 9.18828 6.13043 9.18828C5.73701 9.18828 4.95375 8.89304 4.56435 8.59799C4.06386 8.21889 3.70162 7.51312 3.7004 6.91444C3.69987 6.68611 3.78371 6.24913 3.88658 5.94323L4.07364 5.38721L3.53211 4.7127C3.23432 4.34181 2.96386 4.02843 2.93111 4.01631C2.89845 4.00428 2.73977 4.31765 2.57856 4.7127ZM4.88956 6.41566C4.79184 6.68146 4.83525 7.10695 4.98746 7.37593C5.17417 7.7059 5.74234 8.00332 6.1858 8.00332C6.547 8.00332 7.19446 7.82932 7.19446 7.73224C7.19446 7.69925 7.0274 7.57683 6.82331 7.46025C6.61922 7.34358 6.13166 7.02838 5.73998 6.75985C5.34831 6.49123 5.00868 6.27146 4.98519 6.27146C4.96179 6.27146 4.91873 6.33636 4.88956 6.41566ZM12.5863 6.60261C12.3577 6.78163 11.8692 7.1075 11.5007 7.32671L10.8305 7.72531L11.1493 7.86432C11.8032 8.14953 12.7733 7.92676 13.0927 7.41805C13.299 7.08945 13.2771 6.26435 13.0622 6.2742C13.029 6.27575 12.8149 6.4235 12.5863 6.60261ZM8.67906 7.55833C8.37481 7.6843 7.90864 8.16876 7.71556 8.55952C7.54395 8.90708 7.38449 9.75223 7.34763 10.51C7.32563 10.9621 7.32135 10.9683 6.81213 11.2816L6.2988 11.5975L6.5938 11.8246C7.50561 12.5264 8.14845 13.5703 8.67496 15.2042C8.82848 15.6805 8.97441 16.1317 8.9993 16.2069C9.02419 16.2821 9.19046 15.8924 9.36888 15.3409C9.54729 14.7895 9.82789 14.0534 9.9925 13.7052C10.303 13.0484 11.0477 12.1253 11.4843 11.8562C11.6225 11.7709 11.7356 11.672 11.7356 11.6364C11.7356 11.6008 11.5234 11.4449 11.2641 11.29C11.0048 11.1352 10.769 10.9442 10.7401 10.8657C10.7112 10.7872 10.6876 10.4822 10.6876 10.1879C10.6876 9.00953 10.2801 8.06758 9.59602 7.66497C9.21701 7.44193 9.01651 7.41868 8.67906 7.55833Z" fill="white"/>
</svg>
