<svg width="19" height="18" viewBox="0 0 19 18" fill="none" xmlns="http://www.w3.org/2000/svg">
<path fill-rule="evenodd" clip-rule="evenodd" d="M17.1201 0.777034C16.193 0.954616 13.33 2.26427 6.30845 5.7227C2.55646 7.57071 1.37476 8.15686 1.21919 8.24704C0.7272 8.53228 0.472656 8.82578 0.472656 9.10782C0.472656 9.27931 0.511139 9.37411 0.639847 9.51965C0.833833 9.739 1.03609 9.83846 1.97015 10.1737C3.30633 10.6534 3.92629 10.8385 4.51838 10.9345C5.08457 11.0264 5.65658 10.8671 6.28202 10.4432C6.37346 10.3813 7.14648 9.7951 7.99985 9.14062C11.5292 6.43379 13.2456 5.14772 13.5038 5.0166C13.6054 4.96499 13.7721 4.9605 13.8354 5.00764C13.9329 5.08022 13.9847 5.27461 13.9354 5.38292C13.7933 5.6954 12.7668 6.83332 9.69605 10.0827C9.23498 10.5705 8.55582 11.3447 8.45366 11.4988C8.10944 12.018 8.131 12.4057 8.53016 12.874C8.68954 13.0609 8.89855 13.2375 9.49526 13.689C9.76457 13.8928 10.3461 14.3392 10.7876 14.6809C11.2291 15.0226 11.8891 15.527 12.2542 15.8018C12.6193 16.0765 13.0668 16.4211 13.2487 16.5674C13.7319 16.9562 13.9707 17.1294 14.2233 17.2746C14.5912 17.486 14.8436 17.5614 15.1866 17.5624C15.4335 17.5631 15.5385 17.5306 15.7117 17.3998C16.0016 17.1809 16.236 16.7006 16.3897 16.0105C16.4385 15.7911 16.5746 14.9673 16.7836 13.6263C17.5587 8.65079 18.1699 4.11236 18.3252 2.1795C18.3436 1.95131 18.326 1.63586 18.2828 1.4186C18.2497 1.25169 18.1811 1.0972 18.0985 1.00329C18.0184 0.912242 17.8401 0.813641 17.6906 0.777617C17.5562 0.745261 17.2874 0.744988 17.1201 0.777034Z" fill="white"/>
</svg>
