<svg width="16" height="18" viewBox="0 0 16 18" fill="none" xmlns="http://www.w3.org/2000/svg">
<path fill-rule="evenodd" clip-rule="evenodd" d="M0.09375 0.491852C0.09375 0.503764 0.23312 0.718414 0.403456 0.968801C0.657124 1.3418 4.76519 7.46587 5.96833 9.26469L6.29513 9.75327L5.33668 10.8973C1.34785 15.6581 0.114425 17.1375 0.101322 17.1766C0.0919821 17.2043 0.344653 17.2209 0.758728 17.2197L1.43123 17.2179L4.17103 13.9408C6.54281 11.1039 6.9179 10.6745 6.9636 10.7437C7.94381 12.2254 11.2741 17.1615 11.31 17.186C11.3805 17.2339 15.9622 17.2304 15.9622 17.1825C15.9622 17.161 15.8433 16.9673 15.698 16.7521C15.457 16.3951 14.6916 15.2542 10.8227 9.48521L9.5195 7.54205L10.2154 6.71657C10.5981 6.26261 11.6033 5.06405 12.4493 4.05315C13.2953 3.04225 14.2954 1.84783 14.6716 1.39894C15.0479 0.950002 15.371 0.557415 15.3896 0.526472C15.4155 0.48343 15.2643 0.470215 14.747 0.470215H14.0706L12.4222 2.43618C11.5157 3.51748 10.3565 4.90021 9.8463 5.50903C9.10937 6.38839 8.90766 6.6036 8.86482 6.55599C8.83521 6.523 7.92853 5.17689 6.85003 3.56457C5.77152 1.95225 4.85768 0.596455 4.81932 0.551645C4.75458 0.476078 4.58188 0.470215 2.42165 0.470215C1.14129 0.470215 0.09375 0.47994 0.09375 0.491852ZM2.55109 2.21362C2.78299 2.55921 3.62946 3.82119 4.43209 5.01798C5.23476 6.21482 7.0574 8.93199 8.48243 11.0562C9.90746 13.1803 11.2502 15.185 11.4662 15.5111L11.859 16.1038L12.8905 16.1043C13.4578 16.1046 13.9219 16.0952 13.9219 16.0834C13.9219 16.0716 12.7244 14.2761 11.2608 12.0934C9.79715 9.91055 7.61679 6.65892 6.41555 4.86745L4.23142 1.61024L3.18043 1.59772L2.12944 1.58525L2.55109 2.21362Z" fill="white"/>
</svg>
